<?xml version="1.0" encoding="UTF-8" standalone="no"?>
<!-- Created with Inkscape (http://www.inkscape.org/) -->

<svg
   version="1.1"
   id="svg2"
   xml:space="preserve"
   width="2666.6667"
   height="2666.6667"
   viewBox="0 0 2666.6667 2666.6667"
   sodipodi:docname="1_fff_36.eps"
   xmlns:inkscape="http://www.inkscape.org/namespaces/inkscape"
   xmlns:sodipodi="http://sodipodi.sourceforge.net/DTD/sodipodi-0.dtd"
   xmlns="http://www.w3.org/2000/svg"
   xmlns:svg="http://www.w3.org/2000/svg"><defs
     id="defs6" /><sodipodi:namedview
     id="namedview4"
     pagecolor="#ffffff"
     bordercolor="#666666"
     borderopacity="1.0"
     inkscape:pageshadow="2"
     inkscape:pageopacity="0.0"
     inkscape:pagecheckerboard="0" /><g
     id="g8"
     inkscape:groupmode="layer"
     inkscape:label="ink_ext_XXXXXX"
     transform="matrix(1.3333333,0,0,-1.3333333,0,2666.6667)"><g
       id="g10"
       transform="scale(0.1)"><path
         d="m 13570.5,11204.8 1489.2,-658.6 c -14.4,-42.4 -30.7,-84.3 -48.8,-125.2 -162.1,-366.5 -457.1,-647.9 -830.8,-792.4 -373.7,-144.6 -781.4,-134.9 -1147.8,27.1 -41,18.1 -81.2,38.1 -120.4,59.8 l 658.6,1489.3"
         style="fill:#000000;fill-opacity:1;fill-rule:nonzero;stroke:none"
         id="path12" /><path
         d="m 17680,11677.8 -1541.8,-1235.7 -799.5,353.5 c -0.3,0.3 -0.7,0.4 -1,0.5 -2.7,1.3 -5.5,2.5 -8.4,3.7 l -1776.8,785.8 -6876.99,3041.4 605.9,1370 c 27.59,62.5 77.89,110.5 141.61,135.1 63.72,24.6 133.2,23.1 195.75,-4.7 L 17680,11677.8"
         style="fill:#000000;fill-opacity:1;fill-rule:nonzero;stroke:none"
         id="path14" /><path
         d="m 13258.6,11342.7 -719.2,-1626.6 -213.1,-481.6 -2537.02,1122 c -0.74,0.4 -1.49,0.8 -2.24,1.1 -1.17,0.6 -2.34,1.2 -3.62,1.7 -1.5,0.6 -3.09,1.3 -4.58,1.9 L 8363.83,10987 c -0.85,0.4 -1.7,0.8 -2.56,1.2 -1.06,0.4 -2.02,0.8 -3.08,1.3 l -2519.07,1114 c -128.93,57.2 -187.44,208.5 -130.42,337.4 l 828.92,1874.2 6720.98,-2972.4"
         style="fill:#000000;fill-opacity:1;fill-rule:nonzero;stroke:none"
         id="path16" /><path
         d="m 9489.63,10116.3 -1484.8,-3357 C 7963.92,6666.8 7872.06,6607 7770.94,6607 H 3875.02 v 1214 h 2883.39 c 236.14,0 450.32,139.5 545.8,355.4 l 1075.08,2430.9 1110.34,-491"
         style="fill:#000000;fill-opacity:1;fill-rule:nonzero;stroke:none"
         id="path18" /><path
         d="m 3534.03,6436.5 v -1212 c 0,-705.6 -530.77,-1289.7 -1214.03,-1374 v 6727 c 683.26,-84.3 1214.03,-668.4 1214.03,-1374.1 v -1211.9 -1555"
         style="fill:#000000;fill-opacity:1;fill-rule:nonzero;stroke:none"
         id="path20" /></g></g></svg>
